<?xml version="1.0" encoding="UTF-8"?>
<svg xmlns="http://www.w3.org/2000/svg" version="1.1" width="13" height="12">
<rect id="Rechteck_2" data-name="Rechteck 2" fill="#e30613" width="13" height="12"/>
<path id="_8" data-name="8" fill="#ffffff" d="M47.751,163.651l-0.149.312,0.3,0.47,0.154,0.119,0.242-.119,0.084,0.071-0.066.18,0.229,0.255,0.171-.018q0.6-.835,1.022-1.378t0.784-.973q0.5,0.786.762,1.156a6.009,6.009,0,0,0,.472.6l0.189,0.009,0.413-.387,0.242,0.189H52.73l0.3-.285L53,163.73l0.136-.18,0.11,0.026,0.312-.395,0.066-.251-1.657-2.14q0.422-.558.965-1.164t1.589-1.666l-0.018-.1,0.189-.25-0.259-.352-0.145.036-0.233-.189,0.079-.154a1.222,1.222,0,0,0-.224-0.268,0.57,0.57,0,0,0-.233-0.119q-0.527.471-1.092,1.035t-1.637,1.712l-1.384-2.171-0.2-.145-0.29.171-0.026.264-0.132.07-0.272-.242-0.431.541a11,11,0,0,0,.492,1.375q0.33,0.779.813,1.719-0.532.588-1.009,1.153t-0.929,1.132Z" transform="translate(-44 -155)"/>
</svg>