<svg width="36" height="36" viewBox="0 0 36 36" fill="none" xmlns="http://www.w3.org/2000/svg">
<circle cx="18" cy="18" r="18" fill="#393A3C"/>
<circle cx="18" cy="18" r="14.5" fill="#086BB7" stroke="white" stroke-width="3"/>
<path d="M13.1041 13.3313C13.5978 11.9375 14.9228 11 16.4041 11H20.0478C22.2291 11 23.9916 12.7688 23.9916 14.9438C23.9916 16.3563 23.2353 17.6625 22.0103 18.3687L19.9916 19.525C19.9791 20.3375 19.3103 21 18.4916 21C17.6603 21 16.9916 20.3313 16.9916 19.5V18.6562C16.9916 18.1187 17.2791 17.625 17.7478 17.3562L20.5166 15.7688C20.8103 15.6 20.9916 15.2875 20.9916 14.95C20.9916 14.425 20.5666 14.0063 20.0478 14.0063H16.4041C16.1916 14.0063 16.0041 14.1375 15.9353 14.3375L15.9103 14.4125C15.6353 15.1938 14.7728 15.6 13.9978 15.325C13.2228 15.05 12.8103 14.1875 13.0853 13.4125L13.1103 13.3375L13.1041 13.3313ZM16.4916 25C16.4916 24.4696 16.7023 23.9609 17.0773 23.5858C17.4524 23.2107 17.9611 23 18.4916 23C19.022 23 19.5307 23.2107 19.9058 23.5858C20.2808 23.9609 20.4916 24.4696 20.4916 25C20.4916 25.5304 20.2808 26.0391 19.9058 26.4142C19.5307 26.7893 19.022 27 18.4916 27C17.9611 27 17.4524 26.7893 17.0773 26.4142C16.7023 26.0391 16.4916 25.5304 16.4916 25Z" fill="white"/>
</svg>
