<?xml version="1.0" encoding="UTF-8"?>
<svg xmlns="http://www.w3.org/2000/svg" version="1.1" width="13" height="12">
<rect x="0.5" y="1.5" width="10" height="10" fill="#ffffff" stroke="#666666" stroke-width="1"/>
<path d="M46.927,93.174a5.064,5.064,0,0,0,.744.462,0.615,0.615,0,0,0,.065.011,2.4,2.4,0,0,0,.3.032A3.744,3.744,0,0,0,49.5,92.631l0.392-.36a72.2,72.2,0,0,0,5.65-5.881l0.005-.005q0.005-.113.014-0.306t0.008-.252V85.563a1.734,1.734,0,0,0-.056-0.569,0.216,0.216,0,0,0-.218-0.124,1,1,0,0,0-.177.019q-0.1.019-.274,0.067a27.227,27.227,0,0,0-3.051,2.772q-0.516.521-.779,0.784-1.192,1.171-1.571,1.509a1.416,1.416,0,0,1-.465.338,0.3,0.3,0,0,1-.164-0.054,0.69,0.69,0,0,1-.164-0.156,11.9,11.9,0,0,1-.209-1.235q-0.1-.795-0.145-1.064a0.624,0.624,0,0,0-.145-0.164,0.657,0.657,0,0,0-.193-0.1q-0.043-.005-0.1-0.008t-0.145,0a1.52,1.52,0,0,0-1.144.585l-0.027.032a1.771,1.771,0,0,0-.376.585,2.618,2.618,0,0,0-.091.8q0,0.456.086,1.292t0.242,1.8A3,3,0,0,0,46.927,93.174Z" transform="translate(-43.5 -84.5)" fill="#03326c"/>
</svg>