<?xml version="1.0" encoding="UTF-8"?>
<svg xmlns="http://www.w3.org/2000/svg" version="1.1" width="13" height="12">
<rect x="0" y="0" width="13" height="12" fill="#03326c" />
<path d="M47.663,129.092a4.128,4.128,0,0,0,.609.378,0.335,0.335,0,0,0,.053.008,1.916,1.916,0,0,0,.242.027,3.067,3.067,0,0,0,1.2-.857l0.321-.295a58.893,58.893,0,0,0,4.623-4.812l0,0c0-.061.007-0.145,0.011-0.25s0.007-.175.007-0.207v-0.215a1.418,1.418,0,0,0-.046-0.466,0.177,0.177,0,0,0-.178-0.1,0.835,0.835,0,0,0-.145.015c-0.056.01-.13,0.029-0.224,0.055a22.351,22.351,0,0,0-2.5,2.268q-0.422.426-.637,0.641-0.976.959-1.285,1.235a1.153,1.153,0,0,1-.38.277,0.249,0.249,0,0,1-.134-0.044,0.572,0.572,0,0,1-.134-0.127,9.767,9.767,0,0,1-.171-1.011q-0.084-.651-0.119-0.87a0.494,0.494,0,0,0-.119-0.134,0.542,0.542,0,0,0-.158-0.082c-0.024,0-.05,0-0.079-0.006s-0.069,0-.119,0a1.241,1.241,0,0,0-.936.479l-0.022.026a1.454,1.454,0,0,0-.308.479,2.142,2.142,0,0,0-.075.65c0,0.249.023,0.6,0.07,1.057s0.113,0.947.2,1.475A2.47,2.47,0,0,0,47.663,129.092Z" transform="translate(-44 -120)" fill="#ffffff"/>
</svg>