<svg width="36" height="36" viewBox="0 0 36 36" fill="none" xmlns="http://www.w3.org/2000/svg">
<circle cx="18" cy="18" r="18" fill="#393A3C"/>
<circle cx="18" cy="18" r="14.5" fill="#086BB7" stroke="white" stroke-width="3"/>
<path d="M14 24.5C14 23.6687 14.6687 23 15.5 23H17V19H15.5C14.6687 19 14 18.3313 14 17.5C14 16.6687 14.6687 16 15.5 16H18.5C19.3313 16 20 16.6687 20 17.5V23H20.5C21.3313 23 22 23.6687 22 24.5C22 25.3313 21.3313 26 20.5 26H15.5C14.6687 26 14 25.3313 14 24.5Z" fill="white"/>
<path d="M19.4142 13.4142C19.0391 13.7893 18.5304 14 18 14C17.4696 14 16.9609 13.7893 16.5858 13.4142C16.2107 13.0391 16 12.5304 16 12C16 11.4696 16.2107 10.9609 16.5858 10.5858C16.9609 10.2107 17.4696 10 18 10C18.5304 10 19.0391 10.2107 19.4142 10.5858C19.7893 10.9609 20 11.4696 20 12C20 12.5304 19.7893 13.0391 19.4142 13.4142Z" fill="white"/>
</svg>
