<svg width="36" height="36" viewBox="0 0 36 36" fill="none" xmlns="http://www.w3.org/2000/svg">
<circle cx="18" cy="18" r="18" fill="#393A3C"/>
<circle cx="18" cy="18" r="14.5" fill="#086BB7" stroke="white" stroke-width="3"/>
<path d="M16.5 23.5C16.5 24.3313 17.1687 25 18 25C18.8313 25 19.5 24.3313 19.5 23.5V19.5H23.5C24.3313 19.5 25 18.8313 25 18C25 17.1688 24.3313 16.5 23.5 16.5H19.5V12.5C19.5 11.6687 18.8313 11 18 11C17.1687 11 16.5 11.6687 16.5 12.5V16.5H12.5C11.6687 16.5 11 17.1688 11 18C11 18.8313 11.6687 19.5 12.5 19.5H16.5V23.5Z" fill="white"/>
</svg>
